<?xml version="1.0" encoding="utf-8"?>
<!-- Generator: Adobe Illustrator 17.0.0, SVG Export Plug-In . SVG Version: 6.00 Build 0)  -->
<!DOCTYPE svg PUBLIC "-//W3C//DTD SVG 1.1//EN" "http://www.w3.org/Graphics/SVG/1.1/DTD/svg11.dtd">
<svg version="1.1" id="Calque_1" xmlns="http://www.w3.org/2000/svg" xmlns:xlink="http://www.w3.org/1999/xlink" x="0px" y="0px"
	 width="200px" height="200px" viewBox="0 0 200 200" enable-background="new 0 0 200 200" xml:space="preserve">
<g>
	<g>
		<path fill="#A31E24" d="M45.697,173.639c-0.317,0.062-0.645,0.092-0.967,0.139c0.341,0.049,0.682,0.094,1.028,0.126
			C45.74,173.815,45.714,173.729,45.697,173.639z"/>
		<path fill="#A31E24" d="M116.961,15.177c1.228-1.201,2.623-2.226,4.133-3.07c-3.313-5.816-9.522-9.773-16.698-9.836
			c-1.008-0.009-1.995,0.068-2.962,0.208C108.657,3.511,114.576,8.504,116.961,15.177z"/>
		<path fill="#A31E24" d="M82.291,11.274c0.503-0.787,1.066-1.53,1.673-2.235c-2.295-0.99-4.819-1.553-7.477-1.576
			c-0.994-0.009-1.963,0.081-2.918,0.217C76.805,8.154,79.779,9.417,82.291,11.274z"/>
		<path fill="#A31E24" d="M149.775,26.352c1.08-0.176,2.184-0.284,3.316-0.274c0.752,0.007,1.49,0.066,2.218,0.155
			c-1.37-9.314-9.326-16.511-19.035-16.595c-1-0.009-1.975,0.082-2.935,0.219C141.868,11.088,148.577,17.837,149.775,26.352z"/>
		<path fill="#A31E24" d="M143.396,172.949c0.001,0.104,0.014,0.206,0.013,0.31c-0.085,9.742-7.328,17.723-16.688,19.053
			c0.862,0.126,1.738,0.209,2.635,0.217c10.249,0.089,18.695-7.774,19.524-17.827C146.941,174.387,145.099,173.788,143.396,172.949z
			"/>
		<path fill="#A31E24" d="M199.992,100.335c0.057-6.517-3.111-12.298-8.001-15.868c2.151-3.097,3.428-6.849,3.464-10.904
			c0.094-10.736-8.534-19.516-19.27-19.61c-0.073-0.001-0.143,0.009-0.215,0.009c1.213-2.507,1.922-5.304,1.948-8.274
			c0.094-10.736-8.534-19.516-19.27-19.61c-0.994-0.009-1.962,0.084-2.916,0.223c9.472,1.375,16.716,9.548,16.63,19.386
			c-0.026,2.97-0.736,5.767-1.948,8.274c0.072,0,0.143-0.01,0.215-0.009c10.736,0.094,19.364,8.873,19.27,19.61
			c-0.035,4.055-1.313,7.807-3.464,10.904c4.89,3.57,8.058,9.351,8.001,15.868c-0.073,8.35-5.41,15.404-12.825,18.092
			c3.731,3.578,6.049,8.613,6.001,14.191c-0.085,9.71-7.282,17.672-16.598,19.04c0.262,1.302,0.4,2.649,0.388,4.03
			c-0.085,9.747-7.337,17.732-16.704,19.056c0.866,0.129,1.749,0.207,2.651,0.215c10.736,0.094,19.516-8.534,19.61-19.27
			c0.012-1.381-0.125-2.728-0.388-4.03c9.316-1.368,16.514-9.33,16.598-19.04c0.049-5.577-2.269-10.613-6.001-14.191
			C194.582,115.738,199.919,108.685,199.992,100.335z"/>
		<path fill="#A31E24" d="M51.335,27.052c-0.001-0.107-0.014-0.211-0.013-0.318c0.004-0.468,0.046-0.925,0.082-1.385
			c-0.9-0.139-1.818-0.223-2.756-0.231c-0.989-0.009-1.954,0.08-2.905,0.215C47.719,25.627,49.597,26.215,51.335,27.052z"/>
		<path fill="#A31E24" d="M112.303,188.616c-3.017,4.184-7.65,7.115-12.978,7.884c0.85,0.122,1.714,0.2,2.597,0.208
			c5.526,0.048,10.519-2.227,14.088-5.9C114.691,190.21,113.447,189.477,112.303,188.616z"/>
		<path fill="#A31E24" d="M78.326,184.029c-2.876,2.787-6.613,4.671-10.763,5.264c0.86,0.124,1.733,0.211,2.626,0.218
			c3.482,0.03,6.747-0.872,9.586-2.451C79.212,186.097,78.72,185.087,78.326,184.029z"/>
	</g>
	<path fill="#F0141E" d="M194.436,100.335c0.057-6.517-3.111-12.298-8.001-15.868c2.151-3.097,3.428-6.849,3.464-10.904
		c0.094-10.736-8.534-19.516-19.27-19.61c-0.073-0.001-0.143,0.009-0.215,0.009c1.213-2.507,1.922-5.304,1.948-8.274
		c0.094-10.736-8.534-19.516-19.27-19.61c-1.132-0.01-2.235,0.098-3.316,0.274c-1.319-9.372-9.307-16.629-19.057-16.714
		c-5.349-0.047-10.211,2.073-13.757,5.539c-2.666-7.457-9.74-12.832-18.121-12.905c-6.951-0.061-13.065,3.546-16.549,9.003
		c-3.183-2.353-7.099-3.774-11.36-3.811c-10.736-0.094-19.516,8.534-19.61,19.27c-0.001,0.107,0.013,0.211,0.013,0.318
		c-2.499-1.203-5.286-1.908-8.243-1.933c-10.736-0.094-19.516,8.534-19.61,19.27c-0.01,1.088,0.093,2.148,0.255,3.189
		C14.712,49.192,7.822,57.03,7.739,66.532c-0.047,5.384,2.101,10.275,5.606,13.826c-7.69,2.538-13.278,9.732-13.352,18.28
		c-0.06,6.825,3.412,12.848,8.702,16.363c-2.384,3.196-3.826,7.137-3.864,11.43c-0.094,10.736,8.534,19.516,19.27,19.61
		c0.139,0.001,0.274-0.016,0.413-0.017c-1.24,2.53-1.967,5.359-1.993,8.365c-0.094,10.736,8.534,19.516,19.27,19.61
		c1.336,0.012,2.642-0.113,3.905-0.358c1.665,8.963,9.478,15.789,18.936,15.872c5.319,0.046,10.153-2.052,13.693-5.482
		c2.728,7.339,9.745,12.606,18.04,12.679c6.558,0.057,12.373-3.149,15.937-8.092c3.207,2.414,7.174,3.877,11.496,3.914
		c10.736,0.094,19.516-8.534,19.61-19.27c0.001-0.105-0.012-0.206-0.013-0.31c2.538,1.25,5.378,1.982,8.396,2.008
		c10.736,0.094,19.516-8.534,19.61-19.27c0.012-1.381-0.125-2.728-0.388-4.03c9.316-1.368,16.514-9.33,16.598-19.04
		c0.049-5.577-2.269-10.613-6.001-14.191C189.026,115.738,194.363,108.685,194.436,100.335z"/>
	<path fill="#FFFFFF" d="M98.04,19.75c-44.181-0.386-80.309,35.118-80.695,79.299c-0.386,44.181,35.118,80.309,79.299,80.695
		c44.181,0.386,80.309-35.118,80.695-79.299C177.724,56.264,142.221,20.135,98.04,19.75z M96.663,177.528
		c-42.957-0.375-77.477-35.503-77.102-78.46c0.375-42.957,35.503-77.477,78.46-77.102s77.477,35.503,77.102,78.46
		C174.748,143.383,139.621,177.903,96.663,177.528z"/>
	<g>
		<path fill="#FFFFFF" d="M46.371,81.194c0.064,0.177,0.055,0.342-0.029,0.497c-0.083,0.154-0.208,0.261-0.372,0.321
			c-0.138,0.05-0.271,0.057-0.4,0.019c-0.131-0.038-0.246-0.109-0.346-0.212l-2.905-3.183l-6.685,2.433l-0.159,4.298
			c-0.011,0.313-0.146,0.518-0.406,0.612c-0.192,0.07-0.354,0.075-0.484,0.014c-0.13-0.061-0.232-0.169-0.306-0.329l-0.022-0.061
			c-0.03-0.083-0.045-0.147-0.046-0.192l0.617-15.197c0.01-0.314,0.166-0.524,0.468-0.635c0.137-0.05,0.271-0.055,0.401-0.019
			c0.13,0.038,0.245,0.109,0.345,0.212l10.198,11.19C46.307,81.062,46.351,81.138,46.371,81.194z M35.668,79.688l5.718-2.081
			l-5.427-5.951L35.668,79.688z"/>
		<path fill="#FFFFFF" d="M51.923,62.867c0.159,0.073,0.271,0.199,0.335,0.376l5.065,13.917c0.064,0.178,0.06,0.346-0.015,0.503
			c-0.074,0.16-0.2,0.271-0.379,0.336s-0.347,0.061-0.506-0.014c-0.158-0.073-0.27-0.198-0.334-0.376l-0.521-1.433
			c-0.115,0.752-0.432,1.471-0.952,2.153c-0.519,0.685-1.191,1.175-2.014,1.475c-0.905,0.33-1.81,0.394-2.715,0.189
			c-0.905-0.203-1.721-0.644-2.449-1.322c-0.728-0.677-1.281-1.536-1.658-2.572c-0.373-1.023-0.498-2.028-0.375-3.016
			c0.122-0.985,0.464-1.849,1.026-2.587c0.562-0.737,1.289-1.269,2.181-1.593c0.809-0.294,1.629-0.365,2.461-0.211
			c0.832,0.153,1.543,0.485,2.133,0.997l-2.183-5.997c-0.064-0.177-0.06-0.346,0.015-0.503c0.075-0.159,0.201-0.271,0.379-0.336
			C51.596,62.789,51.764,62.793,51.923,62.867z M54.031,77.362c0.435-0.576,0.694-1.253,0.775-2.032
			c0.081-0.779-0.027-1.578-0.325-2.396c-0.293-0.806-0.72-1.477-1.28-2.015c-0.561-0.537-1.193-0.89-1.899-1.058
			c-0.706-0.167-1.414-0.122-2.127,0.137c-0.714,0.26-1.287,0.681-1.719,1.263c-0.433,0.582-0.691,1.26-0.774,2.031
			c-0.083,0.772,0.021,1.561,0.314,2.366c0.298,0.818,0.727,1.496,1.288,2.034s1.194,0.891,1.899,1.06
			c0.705,0.168,1.415,0.122,2.128-0.138C53.022,78.355,53.596,77.938,54.031,77.362z"/>
		<path fill="#FFFFFF" d="M68.785,70.902c-0.149,0.998-0.536,1.876-1.16,2.637c-0.624,0.76-1.423,1.316-2.396,1.67
			c-0.974,0.354-1.943,0.442-2.91,0.261s-1.828-0.605-2.583-1.274c-0.755-0.667-1.319-1.513-1.692-2.536
			c-0.372-1.023-0.484-2.034-0.334-3.03c0.149-0.997,0.535-1.879,1.156-2.646c0.621-0.767,1.418-1.328,2.392-1.683
			c0.974-0.354,1.945-0.437,2.915-0.249c0.968,0.188,1.831,0.616,2.586,1.283c0.755,0.667,1.319,1.513,1.692,2.536
			C68.823,68.896,68.935,69.906,68.785,70.902z M65.898,66.298c-0.582-0.529-1.246-0.872-1.992-1.025
			c-0.747-0.153-1.49-0.095-2.23,0.175s-1.344,0.702-1.811,1.296c-0.468,0.595-0.756,1.283-0.867,2.065
			c-0.111,0.783-0.018,1.583,0.28,2.402c0.293,0.805,0.733,1.471,1.321,1.999c0.588,0.528,1.251,0.87,1.992,1.026
			c0.739,0.155,1.479,0.098,2.22-0.171c0.741-0.27,1.349-0.7,1.825-1.29c0.476-0.591,0.766-1.275,0.871-2.055
			c0.104-0.779,0.008-1.579-0.29-2.397S66.479,66.828,65.898,66.298z"/>
		<path fill="#FFFFFF" d="M74.568,59.643c0.259,0.03,0.429,0.154,0.508,0.372c0.069,0.191,0.07,0.365,0.003,0.52
			c-0.067,0.156-0.177,0.262-0.328,0.317c-0.068,0.025-0.214,0.04-0.438,0.042c-0.224,0.005-0.425,0.04-0.603,0.104
			c-0.508,0.185-0.94,0.562-1.3,1.134c-0.359,0.57-0.587,1.222-0.686,1.953c-0.099,0.73-0.035,1.411,0.194,2.037l1.84,5.056
			c0.064,0.178,0.06,0.346-0.015,0.503c-0.074,0.16-0.2,0.271-0.378,0.335c-0.179,0.065-0.348,0.061-0.506-0.014
			c-0.159-0.073-0.271-0.198-0.335-0.376l-3.337-9.168c-0.065-0.179-0.06-0.345,0.015-0.504s0.2-0.271,0.379-0.336
			c0.178-0.064,0.347-0.06,0.505,0.014c0.159,0.074,0.27,0.198,0.335,0.376l0.655,1.8c0.033-0.891,0.274-1.71,0.727-2.453
			c0.451-0.745,1.105-1.281,1.965-1.609C74.042,59.648,74.309,59.614,74.568,59.643z"/>
		<path fill="#FFFFFF" d="M86.849,60.979c-0.08,0.161-0.203,0.271-0.368,0.331l-7.773,2.83c0.298,0.818,0.732,1.491,1.304,2.017
			c0.572,0.525,1.238,0.862,1.999,1.011c0.76,0.148,1.565,0.067,2.416-0.242c0.658-0.24,1.198-0.59,1.62-1.053
			c0.422-0.462,0.713-0.962,0.875-1.5c0.107-0.178,0.228-0.292,0.365-0.342c0.138-0.05,0.28-0.04,0.43,0.029
			c0.15,0.069,0.249,0.171,0.299,0.308c0.055,0.15,0.038,0.319-0.049,0.504c-0.246,0.692-0.639,1.33-1.18,1.912
			c-0.541,0.584-1.181,1.01-1.921,1.279c-1.056,0.384-2.07,0.499-3.042,0.343c-0.974-0.156-1.833-0.557-2.582-1.205
			c-0.747-0.646-1.315-1.503-1.702-2.566c-0.407-1.118-0.541-2.179-0.4-3.181c0.14-1.001,0.499-1.858,1.079-2.57
			c0.58-0.713,1.287-1.222,2.123-1.526c0.823-0.3,1.664-0.389,2.522-0.269c0.859,0.121,1.648,0.466,2.37,1.038
			c0.72,0.573,1.272,1.362,1.653,2.366C86.941,60.655,86.931,60.818,86.849,60.979z M78.856,60.168
			c-0.48,0.793-0.63,1.735-0.45,2.829l7.014-2.553l-0.059-0.163c-0.292-0.589-0.693-1.05-1.202-1.383
			c-0.509-0.332-1.064-0.524-1.665-0.575c-0.602-0.052-1.177,0.021-1.725,0.221C79.974,58.833,79.337,59.375,78.856,60.168z"/>
		<path fill="#FFFFFF" d="M101.637,49.871c0.159,0.074,0.271,0.2,0.336,0.377l3.285,9.025c0.393,1.078,0.515,2.075,0.367,2.995
			c-0.146,0.918-0.525,1.713-1.135,2.384c-0.61,0.67-1.389,1.176-2.335,1.521c-0.575,0.21-1.136,0.345-1.682,0.404
			c-0.545,0.059-1.019,0.046-1.422-0.04c-0.353-0.072-0.569-0.218-0.648-0.436c-0.01-0.027-0.021-0.1-0.033-0.219
			c-0.009-0.151,0.022-0.28,0.094-0.382c0.071-0.103,0.161-0.174,0.271-0.214c0.082-0.03,0.172-0.04,0.269-0.028
			c1.051,0.157,1.975,0.092,2.77-0.198c1.139-0.414,1.91-1.098,2.317-2.05c0.407-0.951,0.388-2.04-0.06-3.269l-0.261-0.715
			c-0.135,0.697-0.461,1.337-0.979,1.919c-0.518,0.583-1.153,1.011-1.908,1.285c-1.193,0.434-2.227,0.41-3.102-0.076
			c-0.875-0.484-1.534-1.334-1.976-2.548l-2.287-6.283c-0.064-0.177-0.06-0.345,0.015-0.504s0.201-0.27,0.379-0.335
			c0.178-0.064,0.346-0.061,0.505,0.013s0.271,0.2,0.335,0.377l2.22,6.099c0.357,0.982,0.844,1.648,1.459,1.996
			c0.616,0.347,1.383,0.354,2.302,0.02c0.562-0.205,1.049-0.54,1.461-1.008c0.412-0.466,0.689-0.984,0.832-1.554
			c0.142-0.569,0.118-1.113-0.07-1.632l-2.22-6.099c-0.064-0.177-0.06-0.346,0.015-0.504c0.075-0.159,0.201-0.27,0.38-0.334
			C101.311,49.793,101.479,49.797,101.637,49.871z"/>
		<path fill="#FFFFFF" d="M116.849,53.409c-0.15,0.998-0.537,1.876-1.16,2.636c-0.624,0.761-1.423,1.316-2.397,1.671
			c-0.973,0.354-1.942,0.442-2.909,0.261c-0.966-0.181-1.827-0.605-2.583-1.274c-0.755-0.667-1.319-1.513-1.691-2.536
			c-0.373-1.023-0.484-2.034-0.334-3.03c0.149-0.997,0.535-1.879,1.156-2.646s1.418-1.328,2.392-1.683s1.944-0.437,2.915-0.249
			c0.968,0.188,1.83,0.617,2.586,1.284c0.756,0.667,1.319,1.513,1.691,2.536C116.887,51.402,116.998,52.412,116.849,53.409z
			 M113.961,48.804c-0.582-0.53-1.245-0.872-1.992-1.025c-0.746-0.153-1.489-0.095-2.23,0.175c-0.739,0.27-1.344,0.702-1.811,1.296
			c-0.467,0.595-0.756,1.284-0.867,2.065c-0.111,0.783-0.018,1.583,0.28,2.402c0.293,0.805,0.733,1.471,1.321,1.999
			c0.588,0.528,1.252,0.87,1.992,1.025s1.48,0.099,2.221-0.171s1.348-0.7,1.824-1.29c0.477-0.591,0.766-1.275,0.871-2.055
			c0.104-0.779,0.008-1.579-0.29-2.397S114.542,49.335,113.961,48.804z"/>
		<path fill="#FFFFFF" d="M125.317,41.531c0.159,0.074,0.271,0.198,0.335,0.377l2.101,5.771c0.487,1.338,0.483,2.501-0.01,3.492
			c-0.493,0.991-1.405,1.728-2.735,2.212c-1.316,0.479-2.479,0.497-3.486,0.053s-1.755-1.334-2.241-2.672l-2.101-5.771
			c-0.064-0.179-0.06-0.345,0.015-0.504s0.2-0.271,0.378-0.336c0.179-0.065,0.348-0.06,0.506,0.014
			c0.159,0.074,0.27,0.198,0.335,0.376l2.101,5.771c0.357,0.982,0.89,1.635,1.598,1.957c0.707,0.322,1.533,0.312,2.479-0.033
			c0.96-0.349,1.61-0.876,1.952-1.58s0.334-1.547-0.023-2.53l-2.101-5.771c-0.065-0.179-0.06-0.345,0.015-0.504
			c0.074-0.158,0.2-0.271,0.379-0.336C124.99,41.452,125.159,41.457,125.317,41.531z"/>
		<path fill="#FFFFFF" d="M134.011,38.007c0.259,0.03,0.429,0.154,0.509,0.372c0.069,0.191,0.07,0.364,0.002,0.52
			c-0.066,0.156-0.176,0.262-0.327,0.317c-0.068,0.025-0.215,0.039-0.438,0.042c-0.223,0.005-0.425,0.039-0.603,0.104
			c-0.508,0.185-0.94,0.562-1.3,1.134c-0.359,0.57-0.588,1.221-0.686,1.953c-0.1,0.73-0.034,1.411,0.193,2.037l1.84,5.056
			c0.064,0.178,0.061,0.345-0.015,0.503c-0.074,0.159-0.2,0.271-0.378,0.335c-0.179,0.065-0.347,0.061-0.506-0.014
			c-0.158-0.072-0.271-0.198-0.335-0.375l-3.337-9.168c-0.064-0.179-0.06-0.345,0.015-0.504c0.074-0.158,0.2-0.271,0.379-0.335
			c0.178-0.065,0.347-0.06,0.505,0.014c0.159,0.073,0.271,0.198,0.336,0.376l0.654,1.8c0.033-0.891,0.274-1.71,0.727-2.453
			c0.451-0.745,1.106-1.281,1.965-1.609C133.484,38.013,133.752,37.979,134.011,38.007z"/>
		<path fill="#FFFFFF" d="M51.741,120.972c-1.409,0.055-2.84-0.198-4.294-0.761c-0.804-0.315-1.324-0.799-1.561-1.449
			c-0.188-0.517-0.162-1.039,0.078-1.571c0.24-0.53,0.63-0.896,1.171-1.092c0.428-0.156,0.86-0.161,1.295-0.015
			c1.17,0.412,2.244,0.63,3.223,0.654c0.979,0.025,2.053-0.176,3.225-0.603c1.261-0.459,2.246-1.135,2.954-2.027
			c0.709-0.892,0.912-1.753,0.61-2.583c-0.367-1.008-1.105-1.635-2.215-1.878c-1.109-0.243-2.696-0.155-4.762,0.268
			c-5.194,1.077-8.492-0.311-9.896-4.166c-0.515-1.412-0.589-2.775-0.226-4.088c0.364-1.313,1.088-2.477,2.172-3.493
			c1.083-1.017,2.414-1.812,3.991-2.386c1.419-0.517,2.832-0.79,4.236-0.819c1.405-0.029,2.651,0.152,3.738,0.543
			c0.84,0.279,1.383,0.752,1.628,1.425c0.188,0.516,0.161,1.041-0.079,1.571c-0.24,0.532-0.619,0.892-1.137,1.08
			c-0.338,0.123-0.679,0.133-1.022,0.029c-0.757-0.257-1.731-0.392-2.92-0.402c-1.19-0.01-2.203,0.136-3.036,0.439
			c-1.419,0.517-2.421,1.179-3.007,1.989c-0.585,0.81-0.723,1.641-0.413,2.492c0.351,0.964,1.015,1.547,1.994,1.748
			c0.979,0.203,2.382,0.149,4.208-0.159c2.059-0.369,3.765-0.502,5.117-0.397c1.352,0.104,2.485,0.505,3.401,1.198
			c0.916,0.695,1.648,1.794,2.195,3.296c0.514,1.412,0.564,2.796,0.152,4.151c-0.412,1.356-1.179,2.561-2.299,3.616
			c-1.122,1.056-2.448,1.861-3.979,2.419C54.664,120.592,53.15,120.916,51.741,120.972z"/>
		<path fill="#FFFFFF" d="M78.573,85.465c0.499,0.25,0.858,0.678,1.079,1.283l4.43,12.171c0.678,1.861,0.883,3.652,0.617,5.372
			c-0.267,1.723-0.962,3.245-2.088,4.568c-1.125,1.323-2.6,2.317-4.425,2.981c-1.824,0.664-3.599,0.853-5.323,0.565
			c-1.724-0.285-3.242-1.002-4.552-2.15c-1.311-1.146-2.304-2.65-2.982-4.512L60.9,93.573c-0.212-0.583-0.187-1.144,0.076-1.685
			c0.263-0.539,0.709-0.924,1.34-1.153c0.541-0.197,1.085-0.173,1.633,0.071c0.548,0.246,0.928,0.658,1.14,1.241l4.43,12.171
			c0.392,1.077,0.978,1.949,1.756,2.617c0.779,0.668,1.65,1.081,2.613,1.238c0.963,0.158,1.905,0.067,2.829-0.269
			c0.969-0.353,1.794-0.905,2.476-1.662c0.682-0.756,1.123-1.646,1.323-2.671c0.201-1.024,0.105-2.075-0.286-3.152L75.8,88.15
			c-0.22-0.605-0.23-1.161-0.031-1.664c0.198-0.504,0.591-0.862,1.177-1.076C77.532,85.197,78.074,85.215,78.573,85.465z"/>
		<path fill="#FFFFFF" d="M97.401,79.164c1.285,0.307,2.453,0.923,3.504,1.847c1.05,0.926,1.825,2.072,2.322,3.439
			c0.489,1.345,0.631,2.715,0.425,4.11s-0.703,2.624-1.49,3.685s-1.756,1.799-2.904,2.217l-5.88,2.14l2.313,6.355
			c0.22,0.605,0.219,1.164-0.002,1.676c-0.221,0.513-0.625,0.875-1.21,1.088c-0.563,0.205-1.097,0.177-1.6-0.084
			c-0.504-0.261-0.861-0.684-1.073-1.266l-7.073-19.435c-0.212-0.582-0.193-1.142,0.059-1.677c0.251-0.535,0.669-0.911,1.255-1.124
			l7.704-2.804C94.899,78.914,96.116,78.857,97.401,79.164z M98.934,89.63c0.286-0.51,0.455-1.099,0.506-1.764
			c0.051-0.666-0.038-1.313-0.266-1.94c-0.228-0.627-0.577-1.181-1.043-1.658c-0.467-0.478-0.972-0.813-1.515-1.01
			c-0.543-0.195-1.03-0.215-1.457-0.059l-5.88,2.14l2.705,7.43l5.879-2.14C98.29,90.473,98.647,90.141,98.934,89.63z"/>
		<path fill="#FFFFFF" d="M126.583,90.323c0.536,0.249,0.899,0.631,1.087,1.147c0.203,0.56,0.174,1.091-0.09,1.593
			c-0.264,0.503-0.688,0.86-1.273,1.073l-11.319,4.12c-0.586,0.213-1.147,0.195-1.684-0.053c-0.537-0.249-0.911-0.666-1.124-1.248
			l-7.073-19.435c-0.212-0.582-0.192-1.142,0.06-1.677c0.251-0.535,0.669-0.911,1.255-1.124l11.319-4.12
			c0.585-0.213,1.143-0.206,1.672,0.02c0.527,0.227,0.898,0.631,1.111,1.213c0.203,0.562,0.178,1.085-0.079,1.571
			c-0.257,0.487-0.689,0.841-1.297,1.062l-9.156,3.333l2.08,5.716l7.636-2.779c0.586-0.213,1.143-0.207,1.672,0.02
			c0.528,0.226,0.899,0.63,1.111,1.213c0.204,0.561,0.178,1.084-0.078,1.57c-0.258,0.487-0.689,0.841-1.298,1.062l-7.636,2.779
			l2.264,6.22l9.156-3.333C125.484,90.056,126.047,90.075,126.583,90.323z"/>
		<path fill="#FFFFFF" d="M150.553,82.379c0.275,0.23,0.469,0.501,0.584,0.815c0.146,0.404,0.146,0.824-0.002,1.258
			c-0.191,0.526-0.636,0.917-1.334,1.171c-0.54,0.197-1.08,0.254-1.621,0.171c-1.956-0.33-3.448-1.905-4.477-4.729
			c-0.294-0.808-0.791-1.35-1.491-1.628c-0.701-0.278-1.547-0.236-2.538,0.124l-6.317,2.3l2.374,6.523
			c0.221,0.605,0.235,1.158,0.048,1.658c-0.188,0.5-0.552,0.848-1.093,1.044c-0.653,0.238-1.293,0.249-1.92,0.033
			c-0.628-0.216-1.047-0.617-1.259-1.199l-7.073-19.435c-0.213-0.582-0.193-1.142,0.059-1.677c0.251-0.535,0.67-0.911,1.256-1.124
			l9.73-3.542c1.171-0.426,2.39-0.513,3.654-0.264c1.264,0.251,2.406,0.813,3.426,1.686c1.019,0.874,1.777,1.993,2.275,3.36
			c0.408,1.121,0.501,2.324,0.28,3.609c-0.221,1.287-0.701,2.421-1.44,3.4c1.777,0.471,3.035,1.51,3.774,3.119
			c0.198,0.334,0.358,0.668,0.481,1.005c0.342,0.662,0.613,1.128,0.814,1.398c0.2,0.27,0.486,0.427,0.859,0.468
			C149.961,81.999,150.278,82.15,150.553,82.379z M140.47,74.703c0.243-0.52,0.373-1.146,0.389-1.875
			c0.015-0.729-0.111-1.463-0.381-2.203c-0.229-0.628-0.562-1.16-1.002-1.596c-0.439-0.437-0.908-0.742-1.404-0.917
			c-0.498-0.175-0.949-0.188-1.354-0.041l-7.399,2.693l2.778,7.632l7.399-2.693C139.9,75.557,140.225,75.224,140.47,74.703z"/>
		<path fill="#FFFFFF" d="M75.086,123.438c0.583,0.271,0.998,0.743,1.245,1.421l7.907,21.725c0.238,0.652,0.209,1.28-0.085,1.882
			c-0.293,0.605-0.793,1.035-1.499,1.291c-0.63,0.229-1.25,0.207-1.863-0.066c-0.612-0.273-1.038-0.735-1.275-1.388l-3.188-8.758
			l-12.049,4.386l3.187,8.758c0.238,0.652,0.197,1.284-0.122,1.896c-0.319,0.614-0.793,1.034-1.422,1.264
			c-0.681,0.247-1.321,0.232-1.92-0.047c-0.6-0.276-1.019-0.741-1.256-1.394l-7.907-21.725c-0.237-0.652-0.209-1.28,0.084-1.884
			c0.294-0.604,0.793-1.034,1.499-1.29c0.629-0.229,1.25-0.207,1.863,0.066c0.613,0.273,1.038,0.737,1.275,1.389l3.146,8.645
			l12.05-4.386l-3.146-8.645c-0.237-0.651-0.196-1.284,0.123-1.897c0.318-0.612,0.792-1.033,1.423-1.263
			C73.858,123.16,74.502,123.167,75.086,123.438z"/>
		<path fill="#FFFFFF" d="M106.005,137.106c0.6,0.278,1.005,0.706,1.214,1.282c0.229,0.627,0.195,1.221-0.099,1.782
			c-0.295,0.562-0.771,0.961-1.425,1.199l-12.653,4.605c-0.655,0.238-1.283,0.219-1.883-0.061c-0.601-0.276-1.019-0.741-1.256-1.394
			l-7.907-21.725c-0.237-0.651-0.215-1.277,0.066-1.877c0.28-0.599,0.748-1.018,1.403-1.256l12.654-4.605
			c0.654-0.238,1.277-0.23,1.869,0.022c0.59,0.252,1.005,0.705,1.242,1.357c0.228,0.626,0.199,1.211-0.087,1.756
			c-0.288,0.544-0.771,0.938-1.45,1.187l-10.237,3.726l2.326,6.391l8.537-3.107c0.655-0.238,1.277-0.23,1.869,0.022
			c0.592,0.253,1.006,0.705,1.243,1.357c0.229,0.625,0.198,1.211-0.089,1.756c-0.286,0.544-0.77,0.939-1.45,1.187l-8.537,3.107
			l2.531,6.954l10.236-3.726C104.776,136.81,105.404,136.83,106.005,137.106z"/>
		<path fill="#FFFFFF" d="M132.801,128.227c0.308,0.257,0.525,0.562,0.652,0.912c0.164,0.451,0.164,0.919-0.001,1.405
			c-0.214,0.589-0.711,1.025-1.492,1.31c-0.604,0.22-1.208,0.283-1.812,0.19c-2.188-0.367-3.855-2.129-5.005-5.287
			c-0.328-0.901-0.885-1.508-1.667-1.819c-0.783-0.311-1.729-0.265-2.837,0.139l-7.063,2.57l2.654,7.292
			c0.246,0.677,0.264,1.296,0.055,1.854c-0.211,0.56-0.618,0.948-1.223,1.169c-0.73,0.266-1.445,0.278-2.146,0.035
			c-0.701-0.24-1.17-0.687-1.408-1.339l-7.906-21.725c-0.237-0.651-0.216-1.277,0.065-1.876c0.28-0.599,0.748-1.018,1.403-1.257
			l10.879-3.959c1.309-0.477,2.671-0.574,4.085-0.295c1.413,0.281,2.689,0.909,3.829,1.884c1.14,0.976,1.987,2.229,2.544,3.756
			c0.456,1.254,0.561,2.6,0.313,4.037c-0.246,1.438-0.783,2.704-1.611,3.8c1.988,0.525,3.395,1.688,4.221,3.487
			c0.223,0.373,0.401,0.748,0.539,1.124c0.382,0.74,0.686,1.261,0.91,1.562c0.224,0.302,0.543,0.477,0.96,0.522
			C132.14,127.801,132.494,127.971,132.801,128.227z M121.528,119.646c0.272-0.582,0.418-1.28,0.436-2.097
			c0.017-0.814-0.125-1.635-0.426-2.463c-0.255-0.701-0.629-1.296-1.12-1.784c-0.491-0.486-1.016-0.828-1.57-1.023
			c-0.557-0.195-1.061-0.212-1.515-0.047l-8.271,3.011l3.105,8.533l8.271-3.011C120.893,120.6,121.255,120.228,121.528,119.646z"/>
		<path fill="#FFFFFF" d="M158.273,115.061c-0.356,2.472-1.291,4.663-2.805,6.576c-1.514,1.912-3.492,3.313-5.934,4.203
			c-2.443,0.889-4.859,1.087-7.248,0.595c-2.39-0.492-4.509-1.573-6.356-3.242s-3.224-3.743-4.126-6.224s-1.183-4.954-0.84-7.42
			c0.343-2.467,1.271-4.656,2.785-6.569c1.514-1.912,3.491-3.314,5.934-4.204c2.443-0.889,4.859-1.086,7.248-0.594
			c2.39,0.492,4.515,1.571,6.375,3.234c1.86,1.665,3.242,3.737,4.146,6.218S158.628,112.59,158.273,115.061z M149.859,105.225
			c-1.178-1.117-2.516-1.856-4.017-2.22c-1.5-0.361-3.006-0.267-4.517,0.283c-1.536,0.559-2.76,1.45-3.668,2.675
			s-1.446,2.647-1.611,4.269c-0.166,1.622,0.057,3.271,0.668,4.95s1.501,3.087,2.67,4.221c1.169,1.136,2.495,1.881,3.979,2.234
			c1.482,0.354,2.993,0.251,4.529-0.308c1.511-0.55,2.725-1.445,3.642-2.688c0.917-1.241,1.467-2.669,1.649-4.282
			c0.184-1.613-0.031-3.26-0.643-4.938C151.931,107.742,151.037,106.344,149.859,105.225z"/>
	</g>
</g>
</svg>
